<svg width="30" height="35" viewBox="0 0 30 35" fill="none" xmlns="http://www.w3.org/2000/svg">
<path d="M17.4265 35L16.9853 30.1875H15.2206C11.0147 30.1875 7.42647 28.7146 4.45588 25.7688C1.48529 22.8229 0 19.2646 0 15.0938C0 10.9229 1.49265 7.36458 4.47794 4.41875C7.46324 1.47292 11.0735 0 15.3088 0C17.3971 0 19.3309 0.371875 21.1103 1.11563C22.8897 1.85938 24.4412 2.90208 25.7647 4.24375C27.0882 5.58542 28.125 7.16771 28.875 8.99062C29.625 10.8135 30 12.8042 30 14.9625C30 16.8875 29.7132 18.8125 29.1397 20.7375C28.5662 22.6625 27.7353 24.5 26.6471 26.25C25.5588 28 24.2353 29.6187 22.6765 31.1062C21.1176 32.5938 19.3676 33.8917 17.4265 35ZM19.6324 30.275C22.0441 28.2625 23.9338 25.8927 25.3015 23.1656C26.6691 20.4385 27.3529 17.7042 27.3529 14.9625C27.3529 11.3458 26.2132 8.38542 23.9338 6.08125C21.6544 3.77708 18.7794 2.625 15.3088 2.625C11.7794 2.625 8.78677 3.84271 6.33088 6.27813C3.875 8.71354 2.64706 11.6521 2.64706 15.0938C2.64706 18.5354 3.875 21.474 6.33088 23.9094C8.78677 26.3448 11.75 27.5625 15.2206 27.5625H19.6324V30.275ZM15.3088 25.2437C15.7794 25.2437 16.1765 25.0833 16.5 24.7625C16.8235 24.4417 16.9853 24.0479 16.9853 23.5813C16.9853 23.1146 16.8235 22.7208 16.5 22.4C16.1765 22.0792 15.7794 21.9187 15.3088 21.9187C14.8382 21.9187 14.4412 22.0792 14.1176 22.4C13.7941 22.7208 13.6324 23.1146 13.6324 23.5813C13.6324 24.0479 13.7941 24.4417 14.1176 24.7625C14.4412 25.0833 14.8382 25.2437 15.3088 25.2437ZM14.1176 19.2937H16.3235C16.3235 18.5646 16.4485 17.9594 16.6985 17.4781C16.9485 16.9969 17.4706 16.3625 18.2647 15.575C19.0588 14.7875 19.6176 14.0656 19.9412 13.4094C20.2647 12.7531 20.4265 12.0458 20.4265 11.2875C20.4265 9.975 19.9779 8.89583 19.0809 8.05C18.1838 7.20417 16.9853 6.78125 15.4853 6.78125C14.25 6.78125 13.1471 7.10208 12.1765 7.74375C11.2059 8.38542 10.4853 9.26042 10.0147 10.3688L12.0441 11.2C12.3676 10.4417 12.8162 9.88021 13.3897 9.51562C13.9632 9.15104 14.6176 8.96875 15.3529 8.96875C16.2353 8.96875 16.9265 9.18021 17.4265 9.60313C17.9265 10.026 18.1765 10.5875 18.1765 11.2875C18.1765 11.8417 18.0147 12.4031 17.6912 12.9719C17.3676 13.5406 16.7941 14.2479 15.9706 15.0938C15.1765 15.9104 14.6691 16.5667 14.4485 17.0625C14.2279 17.5583 14.1176 18.3021 14.1176 19.2937Z" fill="white"/>
</svg>
