<svg width="30" height="30" viewBox="0 0 30 30" fill="none" xmlns="http://www.w3.org/2000/svg">
<path d="M13.9875 22.5H16.2375V13.5H13.9875V22.5ZM15 10.725C15.35 10.725 15.6437 10.6125 15.8812 10.3875C16.1187 10.1625 16.2375 9.875 16.2375 9.525C16.2375 9.175 16.1187 8.875 15.8812 8.625C15.6437 8.375 15.35 8.25 15 8.25C14.65 8.25 14.3563 8.375 14.1188 8.625C13.8813 8.875 13.7625 9.175 13.7625 9.525C13.7625 9.875 13.8813 10.1625 14.1188 10.3875C14.3563 10.6125 14.65 10.725 15 10.725ZM15 30C12.95 30 11.0125 29.6062 9.1875 28.8187C7.3625 28.0312 5.76875 26.9562 4.40625 25.5938C3.04375 24.2313 1.96875 22.6375 1.18125 20.8125C0.39375 18.9875 0 17.0375 0 14.9625C0 12.9125 0.39375 10.975 1.18125 9.15C1.96875 7.325 3.04375 5.7375 4.40625 4.3875C5.76875 3.0375 7.3625 1.96875 9.1875 1.18125C11.0125 0.39375 12.9625 0 15.0375 0C17.0875 0 19.025 0.39375 20.85 1.18125C22.675 1.96875 24.2625 3.0375 25.6125 4.3875C26.9625 5.7375 28.0312 7.325 28.8187 9.15C29.6062 10.975 30 12.925 30 15C30 17.05 29.6062 18.9875 28.8187 20.8125C28.0312 22.6375 26.9625 24.2313 25.6125 25.5938C24.2625 26.9562 22.675 28.0312 20.85 28.8187C19.025 29.6062 17.075 30 15 30ZM15.0375 27.75C18.5625 27.75 21.5625 26.5063 24.0375 24.0188C26.5125 21.5313 27.75 18.5125 27.75 14.9625C27.75 11.4375 26.5125 8.4375 24.0375 5.9625C21.5625 3.4875 18.55 2.25 15 2.25C11.475 2.25 8.46875 3.4875 5.98125 5.9625C3.49375 8.4375 2.25 11.45 2.25 15C2.25 18.525 3.49375 21.5313 5.98125 24.0188C8.46875 26.5063 11.4875 27.75 15.0375 27.75Z" fill="white"/>
</svg>
