<svg width="30" height="24" viewBox="0 0 30 24" fill="none" xmlns="http://www.w3.org/2000/svg">
<path d="M22.65 15.4589C21.675 15.4589 20.8438 15.1047 20.1562 14.3961C19.4688 13.6876 19.125 12.8309 19.125 11.8261C19.125 10.8213 19.4688 9.96457 20.1562 9.25604C20.8438 8.5475 21.675 8.19324 22.65 8.19324C23.625 8.19324 24.4563 8.5475 25.1438 9.25604C25.8313 9.96457 26.175 10.8213 26.175 11.8261C26.175 12.8309 25.8313 13.6876 25.1438 14.3961C24.4563 15.1047 23.625 15.4589 22.65 15.4589ZM15.3 24V22.029C15.3 21.3591 15.4375 20.7858 15.7125 20.3092C15.9875 19.8325 16.375 19.4654 16.875 19.2077C17.8 18.7182 18.7375 18.3575 19.6875 18.1256C20.6375 17.8937 21.625 17.7778 22.65 17.7778C23.675 17.7778 24.6625 17.8873 25.6125 18.1063C26.5625 18.3253 27.5 18.6924 28.425 19.2077C28.925 19.4396 29.3125 19.8003 29.5875 20.2899C29.8625 20.7794 30 21.3591 30 22.029V24H15.3ZM12 11.5942C10.35 11.5942 9 11.0531 7.95 9.97101C6.9 8.88889 6.375 7.49759 6.375 5.7971C6.375 4.09662 6.9 2.70531 7.95 1.62319C9 0.541063 10.35 0 12 0C13.65 0 15 0.541063 16.05 1.62319C17.1 2.70531 17.625 4.09662 17.625 5.7971C17.625 7.49759 17.1 8.88889 16.05 9.97101C15 11.0531 13.65 11.5942 12 11.5942ZM0 24V20.3671C0 19.4911 0.2125 18.686 0.6375 17.9517C1.0625 17.2174 1.7 16.657 2.55 16.2705C4.225 15.4976 5.83125 14.9179 7.36875 14.5314C8.90625 14.1449 10.45 13.9517 12 13.9517C12.8 13.9517 13.5125 13.9903 14.1375 14.0676C14.7625 14.1449 15.4375 14.2609 16.1625 14.4155L15.2062 15.401L14.25 16.3865C13.925 16.3349 13.575 16.3027 13.2 16.2899C12.825 16.277 12.425 16.2705 12 16.2705C10.575 16.2705 9.1875 16.4187 7.8375 16.715C6.4875 17.0113 5.025 17.5588 3.45 18.3575C3.1 18.5378 2.8125 18.8213 2.5875 19.2077C2.3625 19.5942 2.25 19.9807 2.25 20.3671V21.6812H13.05V24H0ZM12 9.27536C12.975 9.27536 13.7812 8.94686 14.4188 8.28986C15.0563 7.63285 15.375 6.80193 15.375 5.7971C15.375 4.79227 15.0563 3.96135 14.4188 3.30435C13.7812 2.64734 12.975 2.31884 12 2.31884C11.025 2.31884 10.2188 2.64734 9.58125 3.30435C8.94375 3.96135 8.625 4.79227 8.625 5.7971C8.625 6.80193 8.94375 7.63285 9.58125 8.28986C10.2188 8.94686 11.025 9.27536 12 9.27536Z" fill="white"/>
</svg>
